<svg width="24" height="24" viewBox="0 0 24 24" fill="none" xmlns="http://www.w3.org/2000/svg">
<g clip-path="url(#clip0_703_233)">
<mask id="mask0_703_233" style="mask-type:luminance" maskUnits="userSpaceOnUse" x="0" y="3" width="24" height="18">
<path d="M22.2857 3.42847H1.71429C0.767512 3.42847 0 4.19598 0 5.14275V18.857C0 19.8038 0.767512 20.5713 1.71429 20.5713H22.2857C23.2325 20.5713 24 19.8038 24 18.857V5.14275C24 4.19598 23.2325 3.42847 22.2857 3.42847Z" fill="white"/>
</mask>
<g mask="url(#mask0_703_233)">
<path d="M23.9998 3.42847H-0.000244141V20.5713H23.9998V3.42847Z" fill="url(#paint0_linear_703_233)"/>
<path fill-rule="evenodd" clip-rule="evenodd" d="M-0.000244141 3.42847H23.9998V4.57132H-0.000244141V3.42847ZM-0.000244141 5.71418H23.9998V6.85704H-0.000244141V5.71418ZM-0.000244141 7.99989H23.9998V9.14276H-0.000244141V7.99989ZM-0.000244141 10.2856H23.9998V11.4285H-0.000244141V10.2856ZM-0.000244141 12.5714H23.9998V13.7142H-0.000244141V12.5714ZM-0.000244141 14.857H23.9998V15.9999H-0.000244141V14.857ZM-0.000244141 17.1428H23.9998V18.2856H-0.000244141V17.1428ZM-0.000244141 19.4285H23.9998V20.5713H-0.000244141V19.4285Z" fill="url(#paint1_linear_703_233)"/>
<path d="M10.2855 3.42847H-0.000244141V11.4285H10.2855V3.42847Z" fill="url(#paint2_linear_703_233)"/>
<path fill-rule="evenodd" clip-rule="evenodd" d="M1.71425 5.71414C1.39866 5.71414 1.14282 5.4583 1.14282 5.14271C1.14282 4.82713 1.39866 4.57129 1.71425 4.57129C2.02985 4.57129 2.28569 4.82713 2.28569 5.14271C2.28569 5.4583 2.02985 5.71414 1.71425 5.71414ZM3.99997 5.71414C3.68438 5.71414 3.42854 5.4583 3.42854 5.14271C3.42854 4.82713 3.68438 4.57129 3.99997 4.57129C4.31555 4.57129 4.57139 4.82713 4.57139 5.14271C4.57139 5.4583 4.31555 5.71414 3.99997 5.71414ZM6.28568 5.71414C5.97009 5.71414 5.71425 5.4583 5.71425 5.14271C5.71425 4.82713 5.97009 4.57129 6.28568 4.57129C6.60127 4.57129 6.85711 4.82713 6.85711 5.14271C6.85711 5.4583 6.60127 5.71414 6.28568 5.71414ZM8.5714 5.71414C8.25581 5.71414 7.99997 5.4583 7.99997 5.14271C7.99997 4.82713 8.25581 4.57129 8.5714 4.57129C8.88698 4.57129 9.14284 4.82713 9.14284 5.14271C9.14284 5.4583 8.88698 5.71414 8.5714 5.71414ZM2.85711 6.857C2.54152 6.857 2.28569 6.60117 2.28569 6.28557C2.28569 5.96998 2.54152 5.71414 2.85711 5.71414C3.1727 5.71414 3.42854 5.96998 3.42854 6.28557C3.42854 6.60117 3.1727 6.857 2.85711 6.857ZM5.14283 6.857C4.82723 6.857 4.57139 6.60117 4.57139 6.28557C4.57139 5.96998 4.82723 5.71414 5.14283 5.71414C5.45842 5.71414 5.71425 5.96998 5.71425 6.28557C5.71425 6.60117 5.45842 6.857 5.14283 6.857ZM7.42853 6.857C7.11295 6.857 6.85711 6.60117 6.85711 6.28557C6.85711 5.96998 7.11295 5.71414 7.42853 5.71414C7.74413 5.71414 7.99997 5.96998 7.99997 6.28557C7.99997 6.60117 7.74413 6.857 7.42853 6.857ZM8.5714 7.99986C8.25581 7.99986 7.99997 7.74402 7.99997 7.42843C7.99997 7.11284 8.25581 6.857 8.5714 6.857C8.88698 6.857 9.14284 7.11284 9.14284 7.42843C9.14284 7.74402 8.88698 7.99986 8.5714 7.99986ZM6.28568 7.99986C5.97009 7.99986 5.71425 7.74402 5.71425 7.42843C5.71425 7.11284 5.97009 6.857 6.28568 6.857C6.60127 6.857 6.85711 7.11284 6.85711 7.42843C6.85711 7.74402 6.60127 7.99986 6.28568 7.99986ZM3.99997 7.99986C3.68438 7.99986 3.42854 7.74402 3.42854 7.42843C3.42854 7.11284 3.68438 6.857 3.99997 6.857C4.31555 6.857 4.57139 7.11284 4.57139 7.42843C4.57139 7.74402 4.31555 7.99986 3.99997 7.99986ZM1.71425 7.99986C1.39866 7.99986 1.14282 7.74402 1.14282 7.42843C1.14282 7.11284 1.39866 6.857 1.71425 6.857C2.02985 6.857 2.28569 7.11284 2.28569 7.42843C2.28569 7.74402 2.02985 7.99986 1.71425 7.99986ZM2.85711 9.14271C2.54152 9.14271 2.28569 8.88687 2.28569 8.57128C2.28569 8.25569 2.54152 7.99986 2.85711 7.99986C3.1727 7.99986 3.42854 8.25569 3.42854 8.57128C3.42854 8.88687 3.1727 9.14271 2.85711 9.14271ZM5.14283 9.14271C4.82723 9.14271 4.57139 8.88687 4.57139 8.57128C4.57139 8.25569 4.82723 7.99986 5.14283 7.99986C5.45842 7.99986 5.71425 8.25569 5.71425 8.57128C5.71425 8.88687 5.45842 9.14271 5.14283 9.14271ZM7.42853 9.14271C7.11295 9.14271 6.85711 8.88687 6.85711 8.57128C6.85711 8.25569 7.11295 7.99986 7.42853 7.99986C7.74413 7.99986 7.99997 8.25569 7.99997 8.57128C7.99997 8.88687 7.74413 9.14271 7.42853 9.14271ZM8.5714 10.2856C8.25581 10.2856 7.99997 10.0297 7.99997 9.71415C7.99997 9.39856 8.25581 9.14271 8.5714 9.14271C8.88698 9.14271 9.14284 9.39856 9.14284 9.71415C9.14284 10.0297 8.88698 10.2856 8.5714 10.2856ZM6.28568 10.2856C5.97009 10.2856 5.71425 10.0297 5.71425 9.71415C5.71425 9.39856 5.97009 9.14271 6.28568 9.14271C6.60127 9.14271 6.85711 9.39856 6.85711 9.71415C6.85711 10.0297 6.60127 10.2856 6.28568 10.2856ZM3.99997 10.2856C3.68438 10.2856 3.42854 10.0297 3.42854 9.71415C3.42854 9.39856 3.68438 9.14271 3.99997 9.14271C4.31555 9.14271 4.57139 9.39856 4.57139 9.71415C4.57139 10.0297 4.31555 10.2856 3.99997 10.2856ZM1.71425 10.2856C1.39866 10.2856 1.14282 10.0297 1.14282 9.71415C1.14282 9.39856 1.39866 9.14271 1.71425 9.14271C2.02985 9.14271 2.28569 9.39856 2.28569 9.71415C2.28569 10.0297 2.02985 10.2856 1.71425 10.2856Z" fill="url(#paint3_linear_703_233)"/>
</g>
</g>
<defs>
<linearGradient id="paint0_linear_703_233" x1="11.9998" y1="3.42847" x2="11.9998" y2="20.5713" gradientUnits="userSpaceOnUse">
<stop stop-color="white"/>
<stop offset="1" stop-color="#F0F0F0"/>
</linearGradient>
<linearGradient id="paint1_linear_703_233" x1="11.9998" y1="3.42847" x2="11.9998" y2="20.5713" gradientUnits="userSpaceOnUse">
<stop stop-color="#D02F44"/>
<stop offset="1" stop-color="#B12537"/>
</linearGradient>
<linearGradient id="paint2_linear_703_233" x1="5.14262" y1="3.42847" x2="5.14262" y2="11.4285" gradientUnits="userSpaceOnUse">
<stop stop-color="#46467F"/>
<stop offset="1" stop-color="#3C3C6D"/>
</linearGradient>
<linearGradient id="paint3_linear_703_233" x1="5.14283" y1="4.57129" x2="5.14283" y2="10.2856" gradientUnits="userSpaceOnUse">
<stop stop-color="white"/>
<stop offset="1" stop-color="#F0F0F0"/>
</linearGradient>
<clipPath id="clip0_703_233">
<rect width="24" height="24" fill="white"/>
</clipPath>
</defs>
</svg>
