<svg width="24" height="24" viewBox="0 0 24 24" fill="none" xmlns="http://www.w3.org/2000/svg">
<g id="twemoji:flag-uzbekistan" clip-path="url(#clip0_703_227)">
<path id="Vector" d="M0 5.99992V8.66659H24V5.99992C24 5.29267 23.719 4.6144 23.219 4.1143C22.7189 3.6142 22.0406 3.33325 21.3333 3.33325H2.66667C1.95942 3.33325 1.28115 3.6142 0.781049 4.1143C0.280952 4.6144 0 5.29267 0 5.99992Z" fill="#0099B5"/>
<path id="Vector_2" d="M24 17.9999V15.3333H0V17.9999C0 18.7072 0.280952 19.3854 0.781049 19.8855C1.28115 20.3856 1.95942 20.6666 2.66667 20.6666H21.3333C22.0406 20.6666 22.7189 20.3856 23.219 19.8855C23.719 19.3854 24 18.7072 24 17.9999Z" fill="#1EB53A"/>
<path id="Vector_3" d="M0 8.66675H24V9.66675H0V8.66675ZM0 14.3334H24V15.3334H0V14.3334Z" fill="#CE1126"/>
<path id="Vector_4" d="M0 12.0001V14.3334H24V9.66675H0V12.0001Z" fill="#EEEEEE"/>
<path id="Vector_5" d="M2.79998 6.10661C2.80004 5.61511 2.97415 5.1395 3.29143 4.76413C3.60872 4.38875 4.04868 4.13786 4.53331 4.05594C4.23497 4.0053 3.92918 4.02037 3.63726 4.10009C3.34534 4.17981 3.07433 4.32227 2.84314 4.51752C2.61195 4.71277 2.42615 4.95612 2.2987 5.23058C2.17125 5.50504 2.10522 5.804 2.10522 6.10661C2.10522 6.40922 2.17125 6.70818 2.2987 6.98264C2.42615 7.2571 2.61195 7.50045 2.84314 7.6957C3.07433 7.89096 3.34534 8.03341 3.63726 8.11313C3.92918 8.19285 4.23497 8.20792 4.53331 8.15728C4.04868 8.07536 3.60872 7.82447 3.29143 7.4491C2.97415 7.07372 2.80004 6.59812 2.79998 6.10661ZM5.92198 7.64194L5.82865 7.35461L5.73531 7.64194H5.43265L5.67731 7.81994L5.58398 8.10728L5.82865 7.92928L6.07265 8.10728L5.97931 7.81994L6.22398 7.64194H5.92198ZM7.72331 7.64194L7.62998 7.35461L7.53665 7.64194H7.23465L7.47931 7.81994L7.38598 8.10728L7.62998 7.92928L7.87465 8.10728L7.78131 7.81994L8.02598 7.64194H7.72331ZM7.62998 5.69061L7.53665 5.97794H7.23465L7.47931 6.15594L7.38598 6.44328L7.62998 6.26528L7.87465 6.44328L7.78131 6.15594L8.02598 5.97794H7.72331L7.62998 5.69061ZM9.52531 7.64194L9.43198 7.35461L9.33865 7.64194H9.03665L9.28065 7.81994L9.18731 8.10728L9.43198 7.92928L9.67665 8.10728L9.58331 7.81994L9.82731 7.64194H9.52531ZM9.43198 5.69061L9.33865 5.97794H9.03665L9.28065 6.15594L9.18731 6.44328L9.43198 6.26528L9.67665 6.44328L9.58331 6.15594L9.82731 5.97794H9.52531L9.43198 5.69061ZM9.43198 4.02661L9.33865 4.31394H9.03665L9.28065 4.49194L9.18731 4.77928L9.43198 4.60128L9.67665 4.77928L9.58331 4.49194L9.82731 4.31394H9.52531L9.43198 4.02661ZM11.3273 7.64194L11.234 7.35461L11.1406 7.64194H10.838L11.0826 7.81994L10.9893 8.10728L11.234 7.92928L11.478 8.10728L11.3846 7.81994L11.6293 7.64194H11.3273ZM11.234 5.69061L11.1406 5.97794H10.838L11.0826 6.15594L10.9893 6.44328L11.234 6.26528L11.478 6.44328L11.3846 6.15594L11.6293 5.97794H11.3273L11.234 5.69061ZM11.234 4.02661L11.1406 4.31394H10.838L11.0826 4.49194L10.9893 4.77928L11.234 4.60128L11.478 4.77928L11.3846 4.49194L11.6293 4.31394H11.3273L11.234 4.02661ZM13.1286 7.64194L13.0353 7.35461L12.942 7.64194H12.64L12.8846 7.81994L12.7913 8.10728L13.0353 7.92928L13.28 8.10728L13.1866 7.81994L13.4313 7.64194H13.1286ZM13.0353 5.69061L12.942 5.97794H12.64L12.8846 6.15594L12.7913 6.44328L13.0353 6.26528L13.28 6.44328L13.1866 6.15594L13.4313 5.97794H13.1286L13.0353 5.69061ZM13.0353 4.02661L12.942 4.31394H12.64L12.8846 4.49194L12.7913 4.77928L13.0353 4.60128L13.28 4.77928L13.1866 4.49194L13.4313 4.31394H13.1286L13.0353 4.02661Z" fill="white"/>
</g>
<defs>
<clipPath id="clip0_703_227">
<rect width="24" height="24" fill="white"/>
</clipPath>
</defs>
</svg>
