<svg width="25" height="25" viewBox="0 0 25 25" fill="none" xmlns="http://www.w3.org/2000/svg">
<path d="M15.8114 12.9941L24.4031 4.42121C24.7794 4.04491 24.9907 3.53454 24.9907 3.00238C24.9907 2.47021 24.7794 1.95985 24.4031 1.58355C24.0269 1.20725 23.5166 0.99585 22.9845 0.99585C22.4524 0.99585 21.9421 1.20725 21.5659 1.58355L12.9941 10.1765L4.42242 1.58355C4.04618 1.20725 3.53588 0.99585 3.0038 0.99585C2.47171 0.99585 1.96141 1.20725 1.58517 1.58355C1.20892 1.95985 0.997551 2.47021 0.997551 3.00238C0.997551 3.53454 1.20892 4.04491 1.58517 4.42121L10.1769 12.9941L1.58517 21.5671C1.39789 21.7529 1.24925 21.9739 1.14781 22.2174C1.04637 22.4609 0.994141 22.7221 0.994141 22.9859C0.994141 23.2497 1.04637 23.5109 1.14781 23.7544C1.24925 23.9979 1.39789 24.219 1.58517 24.4047C1.77091 24.592 1.9919 24.7407 2.23538 24.8422C2.47887 24.9436 2.74003 24.9959 3.0038 24.9959C3.26756 24.9959 3.52872 24.9436 3.77221 24.8422C4.01569 24.7407 4.23668 24.592 4.42242 24.4047L12.9941 15.8118L21.5659 24.4047C21.7516 24.592 21.9726 24.7407 22.2161 24.8422C22.4596 24.9436 22.7207 24.9959 22.9845 24.9959C23.2483 24.9959 23.5094 24.9436 23.7529 24.8422C23.9964 24.7407 24.2174 24.592 24.4031 24.4047C24.5904 24.219 24.739 23.9979 24.8405 23.7544C24.9419 23.5109 24.9941 23.2497 24.9941 22.9859C24.9941 22.7221 24.9419 22.4609 24.8405 22.2174C24.739 21.9739 24.5904 21.7529 24.4031 21.5671L15.8114 12.9941Z" fill="white"/>
</svg>
