<svg width="85" height="20" viewBox="0 0 85 20" fill="none" xmlns="http://www.w3.org/2000/svg">
<g clip-path="url(#clip0_157_70391)">
<path d="M4.71331 0H15.9533C18.3724 0 20.3333 1.96094 20.3333 4.38V15.62C20.3333 18.0391 18.3724 20 15.9533 20H4.71331C2.29425 20 0.333313 18.0391 0.333313 15.62V4.38C0.333313 1.96094 2.29425 0 4.71331 0Z" fill="url(#paint0_linear_157_70391)"/>
<path d="M6.74283 14.5162L6.74471 14.5169L6.06088 15.7012C5.81127 16.1336 5.25846 16.2817 4.82612 16.0321C4.39385 15.7825 4.24565 15.2297 4.49526 14.7973L4.99901 13.9248L5.04737 13.8411C5.13369 13.717 5.34674 13.5028 5.77291 13.5431C5.77291 13.5431 6.7758 13.6519 6.84838 14.1732C6.84838 14.1732 6.85823 14.3447 6.74283 14.5162ZM16.4415 11.4912H14.3092C14.1639 11.4815 14.1006 11.4296 14.0756 11.3994L14.074 11.3967L11.7914 7.44312L11.7885 7.44507L11.6516 7.24882C11.4272 6.9057 11.071 7.7832 11.071 7.7832C10.6456 8.76101 11.1314 9.87265 11.3006 10.2087L14.4711 15.7001C14.7206 16.1323 15.2735 16.2805 15.7059 16.0309C16.1381 15.7812 16.2864 15.2284 16.0367 14.7961L15.2439 13.423C15.2285 13.3897 15.2018 13.2994 15.3644 13.299H16.4415C16.9407 13.299 17.3454 12.8943 17.3454 12.3951C17.3454 11.8959 16.9407 11.4912 16.4415 11.4912ZM12.2998 12.72C12.2998 12.72 12.4136 13.299 11.9732 13.299H4.09049C3.59127 13.299 3.18658 12.8943 3.18658 12.3951C3.18658 11.8959 3.59127 11.4912 4.09049 11.4912H6.11705C6.44424 11.4723 6.52174 11.2834 6.52174 11.2834L6.52362 11.2843L9.16893 6.70242L9.16815 6.70226C9.21635 6.61374 9.17619 6.53007 9.16924 6.51687L8.29557 5.00367C8.04596 4.5714 8.19408 4.01851 8.62643 3.76898C9.05877 3.51937 9.61158 3.66742 9.86119 4.09976L10.2664 4.80156L10.6708 4.10101C10.9204 3.66874 11.4732 3.52054 11.9056 3.77023C12.3379 4.01984 12.486 4.57257 12.2364 5.00492L8.55533 11.3807C8.53924 11.4195 8.53432 11.4805 8.65408 11.4912H10.8544L10.8549 11.5127C10.8549 11.5127 12.1266 11.5324 12.2998 12.72Z" fill="white"/>
</g>
<path d="M27.4823 14.5H26.0846L29.2252 5.77273H30.7465L33.8871 14.5H32.4894L30.0221 7.35795H29.9539L27.4823 14.5ZM27.7167 11.0824H32.2508V12.1903H27.7167V11.0824ZM35.2612 16.9545V7.95455H36.5055V9.01562H36.612C36.6859 8.87926 36.7924 8.72159 36.9316 8.54261C37.0708 8.36364 37.264 8.20739 37.5112 8.07386C37.7583 7.9375 38.085 7.86932 38.4913 7.86932C39.0197 7.86932 39.4913 8.00284 39.906 8.26989C40.3208 8.53693 40.6461 8.92187 40.8819 9.42472C41.1205 9.92756 41.2399 10.5327 41.2399 11.2401C41.2399 11.9474 41.122 12.554 40.8862 13.0597C40.6504 13.5625 40.3265 13.9503 39.9146 14.223C39.5026 14.4929 39.0325 14.6278 38.5041 14.6278C38.1063 14.6278 37.781 14.5611 37.5282 14.4276C37.2782 14.294 37.0822 14.1378 36.9401 13.9588C36.7981 13.7798 36.6887 13.6207 36.612 13.4815H36.5353V16.9545H35.2612ZM36.5097 11.2273C36.5097 11.6875 36.5765 12.0909 36.71 12.4375C36.8435 12.7841 37.0367 13.0554 37.2896 13.2514C37.5424 13.4446 37.8521 13.5412 38.2185 13.5412C38.5992 13.5412 38.9174 13.4403 39.1731 13.2386C39.4288 13.0341 39.622 12.7571 39.7526 12.4077C39.8862 12.0582 39.9529 11.6648 39.9529 11.2273C39.9529 10.7955 39.8876 10.4077 39.7569 10.0639C39.6291 9.72017 39.4359 9.44886 39.1774 9.25C38.9217 9.05114 38.6021 8.9517 38.2185 8.9517C37.8492 8.9517 37.5367 9.04687 37.281 9.23722C37.0282 9.42756 36.8364 9.69318 36.7058 10.0341C36.5751 10.375 36.5097 10.7727 36.5097 11.2273ZM42.8834 16.9545V7.95455H44.1277V9.01562H44.2343C44.3081 8.87926 44.4147 8.72159 44.5539 8.54261C44.6931 8.36364 44.8862 8.20739 45.1334 8.07386C45.3806 7.9375 45.7073 7.86932 46.1135 7.86932C46.6419 7.86932 47.1135 8.00284 47.5283 8.26989C47.9431 8.53693 48.2684 8.92187 48.5041 9.42472C48.7428 9.92756 48.8621 10.5327 48.8621 11.2401C48.8621 11.9474 48.7442 12.554 48.5084 13.0597C48.2726 13.5625 47.9487 13.9503 47.5368 14.223C47.1249 14.4929 46.6547 14.6278 46.1263 14.6278C45.7286 14.6278 45.4033 14.5611 45.1505 14.4276C44.9005 14.294 44.7044 14.1378 44.5624 13.9588C44.4203 13.7798 44.311 13.6207 44.2343 13.4815H44.1576V16.9545H42.8834ZM44.132 11.2273C44.132 11.6875 44.1987 12.0909 44.3323 12.4375C44.4658 12.7841 44.659 13.0554 44.9118 13.2514C45.1647 13.4446 45.4743 13.5412 45.8408 13.5412C46.2215 13.5412 46.5397 13.4403 46.7953 13.2386C47.051 13.0341 47.2442 12.7571 47.3749 12.4077C47.5084 12.0582 47.5752 11.6648 47.5752 11.2273C47.5752 10.7955 47.5098 10.4077 47.3791 10.0639C47.2513 9.72017 47.0581 9.44886 46.7996 9.25C46.5439 9.05114 46.2243 8.9517 45.8408 8.9517C45.4715 8.9517 45.159 9.04687 44.9033 9.23722C44.6505 9.42756 44.4587 9.69318 44.328 10.0341C44.1973 10.375 44.132 10.7727 44.132 11.2273ZM58.7597 8.06534C58.7142 7.66193 58.5267 7.34943 58.1972 7.12784C57.8676 6.90341 57.4528 6.79119 56.9528 6.79119C56.5949 6.79119 56.2852 6.84801 56.0239 6.96165C55.7625 7.07244 55.5594 7.22585 55.4145 7.42188C55.2724 7.61506 55.2014 7.83523 55.2014 8.08239C55.2014 8.28977 55.2497 8.46875 55.3463 8.61932C55.4457 8.76989 55.575 8.89631 55.7341 8.99858C55.896 9.09801 56.0693 9.18182 56.254 9.25C56.4386 9.31534 56.6162 9.36932 56.7866 9.41193L57.6389 9.63352C57.9173 9.7017 58.2028 9.79403 58.4955 9.91051C58.7881 10.027 59.0594 10.1804 59.3094 10.3707C59.5594 10.5611 59.7611 10.7969 59.9145 11.0781C60.0707 11.3594 60.1489 11.696 60.1489 12.0881C60.1489 12.5824 60.021 13.0213 59.7653 13.4048C59.5125 13.7884 59.1446 14.0909 58.6616 14.3125C58.1815 14.5341 57.6006 14.6449 56.9187 14.6449C56.2653 14.6449 55.7 14.5412 55.2227 14.3338C54.7455 14.1264 54.3719 13.8324 54.102 13.4517C53.8321 13.0682 53.683 12.6136 53.6545 12.0881H54.9756C55.0011 12.4034 55.1034 12.6662 55.2824 12.8764C55.4642 13.0838 55.6957 13.2386 55.977 13.3409C56.2611 13.4403 56.5722 13.4901 56.9102 13.4901C57.2824 13.4901 57.6134 13.4318 57.9031 13.3153C58.1957 13.196 58.4259 13.0312 58.5935 12.821C58.7611 12.608 58.8449 12.3594 58.8449 12.0753C58.8449 11.8168 58.771 11.6051 58.6233 11.4403C58.4784 11.2756 58.281 11.1392 58.031 11.0312C57.7838 10.9233 57.504 10.8281 57.1915 10.7457L56.1602 10.4645C55.4614 10.2741 54.9074 9.99432 54.4983 9.625C54.092 9.25568 53.8889 8.76705 53.8889 8.15909C53.8889 7.65625 54.0253 7.21733 54.298 6.84233C54.5707 6.46733 54.9401 6.17614 55.406 5.96875C55.8719 5.75852 56.3974 5.65341 56.9827 5.65341C57.5736 5.65341 58.0949 5.7571 58.5466 5.96449C59.0011 6.17188 59.3591 6.45739 59.6205 6.82102C59.8818 7.18182 60.0182 7.59659 60.0295 8.06534H58.7597ZM64.8915 7.95455V8.97727H61.3162V7.95455H64.8915ZM62.275 6.38636H63.5492V12.5781C63.5492 12.8253 63.5861 13.0114 63.66 13.1364C63.7338 13.2585 63.829 13.3423 63.9455 13.3878C64.0648 13.4304 64.1941 13.4517 64.3333 13.4517C64.4355 13.4517 64.525 13.4446 64.6017 13.4304C64.6784 13.4162 64.7381 13.4048 64.7807 13.3963L65.0108 14.4489C64.937 14.4773 64.8318 14.5057 64.6955 14.5341C64.5591 14.5653 64.3887 14.5824 64.1841 14.5852C63.8489 14.5909 63.5364 14.5312 63.2466 14.4062C62.9568 14.2812 62.7225 14.0881 62.5435 13.8267C62.3645 13.5653 62.275 13.2372 62.275 12.8423V6.38636ZM69.2037 14.6321C68.5901 14.6321 68.0546 14.4915 67.5972 14.2102C67.1398 13.929 66.7847 13.5355 66.5319 13.0298C66.279 12.5241 66.1526 11.9332 66.1526 11.2571C66.1526 10.5781 66.279 9.98437 66.5319 9.47585C66.7847 8.96733 67.1398 8.57244 67.5972 8.29119C68.0546 8.00994 68.5901 7.86932 69.2037 7.86932C69.8174 7.86932 70.3529 8.00994 70.8103 8.29119C71.2677 8.57244 71.6228 8.96733 71.8756 9.47585C72.1284 9.98437 72.2549 10.5781 72.2549 11.2571C72.2549 11.9332 72.1284 12.5241 71.8756 13.0298C71.6228 13.5355 71.2677 13.929 70.8103 14.2102C70.3529 14.4915 69.8174 14.6321 69.2037 14.6321ZM69.208 13.5625C69.6057 13.5625 69.9353 13.4574 70.1966 13.2472C70.458 13.0369 70.6512 12.7571 70.7762 12.4077C70.904 12.0582 70.9679 11.6733 70.9679 11.2528C70.9679 10.8352 70.904 10.4517 70.7762 10.1023C70.6512 9.75 70.458 9.46733 70.1966 9.25426C69.9353 9.04119 69.6057 8.93466 69.208 8.93466C68.8074 8.93466 68.475 9.04119 68.2108 9.25426C67.9495 9.46733 67.7549 9.75 67.627 10.1023C67.502 10.4517 67.4395 10.8352 67.4395 11.2528C67.4395 11.6733 67.502 12.0582 67.627 12.4077C67.7549 12.7571 67.9495 13.0369 68.2108 13.2472C68.475 13.4574 68.8074 13.5625 69.208 13.5625ZM73.8931 14.5V7.95455H75.1246V8.99432H75.1928C75.3121 8.64205 75.5224 8.36506 75.8235 8.16335C76.1275 7.95881 76.4712 7.85653 76.8547 7.85653C76.9343 7.85653 77.028 7.85937 77.136 7.86506C77.2468 7.87074 77.3334 7.87784 77.3959 7.88636V9.10511C77.3448 9.09091 77.2539 9.07528 77.1232 9.05824C76.9925 9.03835 76.8618 9.02841 76.7312 9.02841C76.43 9.02841 76.1616 9.09233 75.9258 9.22017C75.6928 9.34517 75.5082 9.51989 75.3718 9.74432C75.2354 9.96591 75.1672 10.2187 75.1672 10.5028V14.5H73.8931ZM81.3012 14.6321C80.6563 14.6321 80.1009 14.4943 79.635 14.2188C79.172 13.9403 78.814 13.5497 78.5612 13.0469C78.3112 12.5412 78.1862 11.9489 78.1862 11.2699C78.1862 10.5994 78.3112 10.0085 78.5612 9.49716C78.814 8.9858 79.1663 8.58665 79.618 8.29972C80.0725 8.01278 80.6038 7.86932 81.2117 7.86932C81.581 7.86932 81.939 7.9304 82.2856 8.05256C82.6322 8.17472 82.9433 8.36648 83.2188 8.62784C83.4944 8.8892 83.7117 9.22869 83.8708 9.64631C84.0299 10.0611 84.1095 10.5653 84.1095 11.1591V11.6108H78.9063V10.6562H82.8609C82.8609 10.321 82.7927 10.0241 82.6563 9.76562C82.52 9.50426 82.3282 9.2983 82.081 9.14773C81.8367 8.99716 81.5498 8.92188 81.2202 8.92188C80.8623 8.92188 80.5498 9.00994 80.2827 9.18608C80.0185 9.35937 79.814 9.58665 79.6691 9.8679C79.5271 10.1463 79.456 10.4489 79.456 10.7756V11.5213C79.456 11.9588 79.5327 12.331 79.6862 12.6378C79.8424 12.9446 80.0597 13.179 80.3381 13.3409C80.6166 13.5 80.9418 13.5795 81.314 13.5795C81.5555 13.5795 81.7756 13.5455 81.9745 13.4773C82.1734 13.4062 82.3452 13.3011 82.4901 13.1619C82.635 13.0227 82.7458 12.8509 82.8225 12.6463L84.0285 12.8636C83.9319 13.2187 83.7586 13.5298 83.5086 13.7969C83.2614 14.0611 82.9504 14.267 82.5754 14.4148C82.2032 14.5597 81.7785 14.6321 81.3012 14.6321Z" fill="white"/>
<defs>
<linearGradient id="paint0_linear_157_70391" x1="10.3333" y1="0" x2="10.3333" y2="20" gradientUnits="userSpaceOnUse">
<stop stop-color="#17C9FB"/>
<stop offset="1" stop-color="#1A74E8"/>
</linearGradient>
<clipPath id="clip0_157_70391">
<rect width="20" height="20" fill="white" transform="translate(0.333313)"/>
</clipPath>
</defs>
</svg>
