<svg width="36" height="34" viewBox="0 0 36 34" fill="none" xmlns="http://www.w3.org/2000/svg">
<rect y="0.111328" width="36" height="33.7778" rx="6" fill="black" fill-opacity="0.3"/>
<path fill-rule="evenodd" clip-rule="evenodd" d="M14.8777 11.4899C14.8777 13.3566 13.3389 14.8695 11.4389 14.8695C9.53999 14.8695 8 13.3566 8 11.4899C8 9.62431 9.53999 8.11133 11.4389 8.11133C13.3389 8.11133 14.8777 9.62431 14.8777 11.4899ZM26.4933 10.0097C27.3244 10.0097 28 10.6734 28 11.4899C28 12.3075 27.3244 12.9712 26.4933 12.9712H19.9178C19.0856 12.9712 18.4101 12.3075 18.4101 11.4899C18.4101 10.6734 19.0856 10.0097 19.9178 10.0097H26.4933ZM9.50777 21.0693H16.0833C16.9155 21.0693 17.5911 21.733 17.5911 22.5506C17.5911 23.3671 16.9155 24.0319 16.0833 24.0319H9.50777C8.67555 24.0319 8 23.3671 8 22.5506C8 21.733 8.67555 21.0693 9.50777 21.0693ZM24.5611 25.8891C26.4611 25.8891 28 24.3761 28 22.5105C28 20.6439 26.4611 19.1309 24.5611 19.1309C22.6623 19.1309 21.1223 20.6439 21.1223 22.5105C21.1223 24.3761 22.6623 25.8891 24.5611 25.8891Z" fill="url(#paint0_linear_157_70749)"/>
<defs>
<linearGradient id="paint0_linear_157_70749" x1="18" y1="8.11133" x2="18" y2="25.8891" gradientUnits="userSpaceOnUse">
<stop stop-color="#9DFFB3"/>
<stop offset="1" stop-color="#1AA37A"/>
</linearGradient>
</defs>
</svg>
