<svg width="87" height="20" viewBox="0 0 87 20" fill="none" xmlns="http://www.w3.org/2000/svg">
<g clip-path="url(#clip0_157_70382)">
<path d="M13.9252 13.0514C16.2904 11.7509 18.0837 10.7601 18.2382 10.6831C18.7325 10.4197 19.2432 9.72297 18.2382 9.18178C17.9137 9.01161 16.1667 8.05144 13.9252 6.81348L10.8181 9.95551L13.9252 13.0514Z" fill="#FFD900"/>
<path d="M10.8181 9.95532L0.924194 19.9399C1.15626 19.9707 1.41847 19.9091 1.72772 19.7389C2.37671 19.3833 9.25621 15.6213 13.9254 13.0519L10.8181 9.95532Z" fill="#F43249"/>
<path d="M10.8181 9.9555L13.925 6.82872C13.925 6.82872 2.42357 0.543802 1.72753 0.172954C1.46567 0.0170221 1.17181 -0.0290796 0.908936 0.0170221L10.8181 9.9555Z" fill="#00EE76"/>
<path d="M10.8181 9.95539L0.90877 0.0170898C0.506583 0.110141 0.166687 0.465903 0.166687 1.19319V18.7634C0.166687 19.4295 0.429734 19.9091 0.924005 19.9552L10.8179 9.95522L10.8181 9.95539Z" fill="#00D3FF"/>
<path d="M43.0824 7.9735C41.3047 7.9735 39.836 9.35096 39.836 11.2396C39.836 13.1128 41.2893 14.5057 43.0826 14.5057C44.8757 14.5057 46.3289 13.1282 46.3289 11.2396C46.3289 9.35096 44.8757 7.9735 43.0824 7.9735ZM43.0824 13.206C42.1083 13.206 41.2585 12.3854 41.2585 11.225C41.2585 10.0486 42.1089 9.24401 43.0824 9.24401C44.0559 9.24401 44.9063 10.0486 44.9063 11.225C44.9063 12.3854 44.0559 13.206 43.0824 13.206ZM36.0176 7.9735C34.2243 7.9735 32.771 9.35096 32.771 11.2396C32.771 13.1128 34.2243 14.5057 36.0176 14.5057C37.8107 14.5057 39.264 13.1282 39.264 11.2396C39.264 9.35096 37.8107 7.9735 36.0174 7.9735H36.0176ZM36.0176 13.206C35.0432 13.206 34.1937 12.3854 34.1937 11.225C34.1937 10.0486 35.0441 9.24401 36.0176 9.24401C36.9917 9.24401 37.8415 10.0486 37.8415 11.225C37.8415 12.3854 37.0063 13.206 36.0176 13.206ZM27.6231 8.97977V10.3572H30.9002C30.8071 11.1311 30.545 11.7038 30.1583 12.0911C29.6792 12.5708 28.9371 13.0974 27.6231 13.0974C25.5976 13.0974 24.0367 11.4567 24.0367 9.42876C24.0367 7.40079 25.5984 5.72909 27.6231 5.72909C28.7203 5.72909 29.5093 6.16265 30.0966 6.72011L31.0701 5.74452C30.2505 4.95537 29.1533 4.35181 27.6231 4.35181C24.8555 4.35181 22.5365 6.62689 22.5365 9.39791C22.5365 12.1691 24.8555 14.4442 27.6231 14.4442C29.1225 14.4442 30.236 13.9491 31.1324 13.0198C32.0444 12.1066 32.3227 10.8215 32.3227 9.78452C32.3227 9.4596 32.2921 9.16537 32.2452 8.91757L27.6231 8.97977ZM61.9737 10.0477C61.7107 9.32011 60.8763 7.9735 59.2061 7.9735C57.5361 7.9735 56.1605 9.28943 56.1605 11.2396C56.1605 13.0659 57.5361 14.5057 59.3609 14.5057C60.8449 14.5057 61.6953 13.5925 62.0506 13.0659L60.9534 12.323C60.582 12.865 60.0875 13.2206 59.3609 13.2206C58.6342 13.2206 58.1243 12.8957 57.7992 12.2298L62.1122 10.4189L61.9737 10.0477ZM57.583 11.1472C57.5524 9.89299 58.5573 9.24316 59.2678 9.24316C59.8399 9.24316 60.3037 9.52181 60.4735 9.93994L57.583 11.1472ZM54.0737 14.2893H55.4962V4.72282H54.0737V14.2893ZM51.7554 8.70113H51.7091C51.3847 8.31384 50.7819 7.9735 50.0083 7.9735C48.385 7.9735 46.9164 9.41333 46.9164 11.2396C46.9164 13.0659 48.4004 14.4905 50.0083 14.4905C50.781 14.4905 51.384 14.1499 51.7091 13.7472H51.7554V14.2116C51.7554 15.4659 51.0901 16.131 50.0237 16.131C49.1579 16.131 48.6166 15.4966 48.4004 14.9699L47.1641 15.4966C47.5192 16.3635 48.4627 17.4315 50.0237 17.4315C51.6931 17.4315 53.1002 16.4406 53.1002 14.0415V8.17452H51.7554V8.70113ZM50.132 13.206C49.1579 13.206 48.339 12.3854 48.339 11.2405C48.339 10.0955 49.1586 9.25926 50.132 9.25926C51.091 9.25926 51.8637 10.0955 51.8637 11.2405C51.863 12.3699 51.0901 13.206 50.132 13.206ZM68.6058 4.72299H65.2048V14.2893H66.6273V10.6667H68.6058C70.1828 10.6667 71.7285 9.52096 71.7285 7.69486C71.7285 5.86859 70.1828 4.72299 68.6058 4.72299ZM68.6518 9.33638H66.6419V6.05401H68.6518C69.703 6.05401 70.3213 6.93638 70.3213 7.69469C70.3066 8.43774 69.7038 9.33638 68.6518 9.33638ZM77.4024 7.95808C76.3821 7.95808 75.3153 8.40706 74.8825 9.42876L76.1351 9.95537C76.4135 9.42876 76.908 9.25859 77.4339 9.25859C78.176 9.25859 78.9179 9.7074 78.9333 10.4966V10.5898C78.6703 10.435 78.1298 10.2179 77.4493 10.2179C76.0891 10.2179 74.7125 10.9764 74.7125 12.3699C74.7125 13.6549 75.826 14.475 77.0625 14.475C78.0213 14.475 78.5465 14.0415 78.871 13.531H78.9172V14.274H80.2927V10.605C80.2775 8.91808 79.0256 7.95808 77.4024 7.95808ZM77.2325 13.1906C76.7687 13.1906 76.119 12.9581 76.119 12.386C76.119 11.643 76.9225 11.3643 77.6184 11.3643C78.2366 11.3643 78.5304 11.5037 78.9172 11.6893C78.8089 12.5716 78.0514 13.1906 77.2325 13.1906ZM85.2556 8.17537L83.6323 12.3082H83.5861L81.9015 8.1752H80.3713L82.9063 13.9643L81.4683 17.1998H82.9523L86.8323 8.1752H85.2554L85.2556 8.17537ZM72.5173 14.2893H73.9398V4.72282H72.5173V14.2893Z" fill="white"/>
</g>
<defs>
<clipPath id="clip0_157_70382">
<rect width="86.6667" height="20" fill="white" transform="translate(0.166687)"/>
</clipPath>
</defs>
</svg>
