<svg width="144" height="88" viewBox="0 0 144 88" fill="none" xmlns="http://www.w3.org/2000/svg">
<rect x="0.785156" width="142.672" height="88" rx="8" fill="white"/>
<path d="M125.457 44C125.457 61.559 111.18 76 93.457 76C75.8981 76 61.457 61.559 61.457 44C61.457 26.441 75.734 12 93.2929 12C111.18 12 125.457 26.441 125.457 44Z" fill="#F9B50B"/>
<path d="M82.621 44.1641C82.621 41.8667 82.2928 39.5692 81.9646 37.4359H62.2723C62.4364 36.2872 62.7646 35.3026 63.0928 33.9897H80.6518C80.3236 32.841 79.8313 31.6923 79.339 30.5436H64.4057C64.898 29.3949 65.5544 28.4103 66.2108 27.0974H77.5339C76.8775 25.9487 76.0569 24.8 75.0723 23.6513H68.8364C69.821 22.5026 70.8057 21.5179 72.1185 20.3692C66.539 15.1179 58.9903 12 50.621 12C33.2262 12.4923 18.7852 26.441 18.7852 44C18.7852 61.559 33.0621 76 50.7852 76C59.1544 76 66.539 72.718 72.2826 67.6308C73.4313 66.6462 74.4159 65.4974 75.5646 64.1846H69.0005C68.18 63.2 67.3595 62.0513 66.7031 60.9026H77.8621C78.5185 59.9179 79.1749 58.7692 79.6672 57.4564H64.7339C64.2416 56.4718 63.7493 55.3231 63.421 54.0103H80.98C81.9646 51.0564 82.621 47.7744 82.621 44.1641Z" fill="#C8191C"/>
<path d="M62.1067 52.2052L62.599 49.2513C62.4349 49.2513 62.1067 49.4154 61.7785 49.4154C60.6298 49.4154 60.4656 48.759 60.6297 48.4308L61.6144 42.5231H63.4195L63.9118 39.2411H62.2708L62.599 37.2719H59.1528C59.1528 37.2719 57.1836 48.4308 57.1836 49.7436C57.1836 51.7129 58.3323 52.6975 59.9733 52.6975C60.958 52.6975 61.7785 52.3693 62.1067 52.2052Z" fill="white"/>
<path d="M63.2617 46.7898C63.2617 51.5488 66.5438 52.6975 69.1694 52.6975C71.631 52.6975 72.7797 52.2052 72.7797 52.2052L73.4361 48.9231C73.4361 48.9231 71.631 49.7437 69.8258 49.7437C66.0515 49.7437 66.7079 46.9539 66.7079 46.9539H73.6002C73.6002 46.9539 74.0925 44.8206 74.0925 43.836C74.0925 41.7026 72.9438 38.9129 69.1694 38.9129C65.8874 38.7488 63.2617 42.5231 63.2617 46.7898ZM69.1694 41.8667C70.9745 41.8667 70.6463 44.0001 70.6463 44.1642H66.872C67.0361 44.0001 67.3643 41.8667 69.1694 41.8667Z" fill="white"/>
<path d="M90.6624 52.2055L91.3189 48.4311C91.3189 48.4311 89.6778 49.2516 88.365 49.2516C86.0676 49.2516 84.9189 47.4465 84.9189 45.3132C84.9189 41.2106 86.8881 39.0773 89.3496 39.0773C90.9906 39.0773 92.4676 40.0619 92.4676 40.0619L92.9599 36.4516C92.9599 36.4516 90.9906 35.6311 89.0214 35.6311C85.083 35.6311 81.3086 39.0773 81.3086 45.4773C81.3086 49.7439 83.2778 52.5337 87.3804 52.5337C88.8573 52.6978 90.6624 52.2055 90.6624 52.2055Z" fill="white"/>
<path d="M43.5602 38.7484C41.2627 38.7484 39.4576 39.4048 39.4576 39.4048L38.9653 42.3587C38.9653 42.3587 40.4422 41.7023 42.7396 41.7023C43.8884 41.7023 44.873 41.8664 44.873 42.851C44.873 43.5074 44.7089 43.6715 44.7089 43.6715H43.232C40.2781 43.6715 37.1602 44.8202 37.1602 48.7587C37.1602 51.8766 39.1294 52.533 40.4422 52.533C42.7396 52.533 43.8884 51.0561 44.0525 51.0561L43.8884 52.3689H46.6781L47.9909 43.0151C47.9909 38.9125 44.7089 38.7484 43.5602 38.7484ZM44.2166 46.2971C44.2166 46.7894 43.8884 49.5792 41.9191 49.5792C40.9345 49.5792 40.6063 48.7587 40.6063 48.2664C40.6063 47.4459 41.0986 46.2971 43.7243 46.2971C44.0525 46.2971 44.2166 46.2971 44.2166 46.2971Z" fill="white"/>
<path d="M51.2666 52.5332C52.0871 52.5332 56.3538 52.6973 56.3538 48.1024C56.3538 43.8357 52.2512 44.6562 52.2512 43.0152C52.2512 42.1947 52.9077 41.8665 54.0564 41.8665C54.5487 41.8665 56.3538 42.0306 56.3538 42.0306L56.8461 38.9127C56.8461 38.9127 55.6974 38.5845 53.5641 38.5845C51.1025 38.5845 48.4769 39.5691 48.4769 43.0152C48.4769 46.9537 52.7436 46.6255 52.7436 48.1024C52.7436 49.087 51.5948 49.2511 50.7743 49.2511C49.2974 49.2511 47.6564 48.7588 47.6564 48.7588L47.1641 51.8768C47.4923 52.205 48.4769 52.5332 51.2666 52.5332Z" fill="white"/>
<path d="M118.889 36.1233L118.233 40.7182C118.233 40.7182 116.92 39.0772 114.951 39.0772C111.833 39.0772 109.207 42.8515 109.207 47.2823C109.207 50.072 110.52 52.8618 113.474 52.8618C115.443 52.8618 116.756 51.5489 116.756 51.5489L116.592 52.6977H120.038L122.499 36.4515L118.889 36.1233ZM117.248 44.9848C117.248 46.79 116.428 49.2515 114.458 49.2515C113.31 49.2515 112.653 48.2669 112.653 46.4618C112.653 43.672 113.802 42.031 115.443 42.031C116.592 42.1951 117.248 43.0156 117.248 44.9848Z" fill="white"/>
<path d="M25.0203 52.3695L26.9896 40.2259L27.3178 52.3695H29.6152L34.046 40.2259L32.2408 52.3695H35.8511L38.6408 36.1233H33.0614L29.6152 46.1336L29.4511 36.1233H24.528L21.7383 52.3695H25.0203Z" fill="white"/>
<path d="M77.5361 52.369C78.5207 46.7895 78.6848 42.1946 81.1463 43.0151C81.4745 40.8818 81.9668 39.8972 82.2951 39.0766H81.6386C80.1617 39.0766 78.8489 41.0459 78.8489 41.0459L79.1771 39.2407H75.8951L73.7617 52.369H77.5361Z" fill="white"/>
<path d="M98.5367 38.7484C96.2393 38.7484 94.4342 39.4048 94.4342 39.4048L93.9418 42.3587C93.9418 42.3587 95.4188 41.7023 97.7162 41.7023C98.8649 41.7023 99.8495 41.8664 99.8495 42.851C99.8495 43.5074 99.6854 43.6715 99.6854 43.6715H98.2085C95.2547 43.6715 92.1367 44.8202 92.1367 48.7587C92.1367 51.8766 94.1059 52.533 95.4188 52.533C97.7162 52.533 98.8649 51.0561 99.029 51.0561L98.8649 52.3689H101.983L103.296 43.0151C103.296 38.9125 99.6854 38.7484 98.5367 38.7484ZM99.3572 46.2971C99.3572 46.7894 99.029 49.5792 97.0598 49.5792C96.0752 49.5792 95.747 48.7587 95.747 48.2664C95.747 47.4459 96.2393 46.2971 98.8649 46.2971C99.1931 46.2971 99.1931 46.2971 99.3572 46.2971Z" fill="white"/>
<path d="M105.931 52.369C106.915 46.7895 107.079 42.1946 109.541 43.0151C109.869 40.8818 110.361 39.8972 110.69 39.0766H110.033C108.556 39.0766 107.243 41.0459 107.243 41.0459L107.572 39.2407H104.29L102.156 52.369H105.931Z" fill="white"/>
</svg>
