<svg width="20" height="20" viewBox="0 0 20 20" fill="none" xmlns="http://www.w3.org/2000/svg">
<path d="M19.4413 0.558689C18.6965 -0.18623 17.4887 -0.18623 16.7438 0.558689L10 7.3025L3.25619 0.558689C2.5114 -0.18623 1.30361 -0.18623 0.558689 0.558689C-0.18623 1.30361 -0.18623 2.51127 0.558689 3.25619L7.3025 10L0.558689 16.7438C-0.18623 17.4887 -0.18623 18.6964 0.558689 19.4413C0.931148 19.8138 1.41933 20.0001 1.90738 20.0001C2.39555 20.0001 2.88373 19.8139 3.25606 19.4413L9.99987 12.6975L16.7437 19.4413C17.1161 19.8138 17.6043 20.0001 18.0924 20.0001C18.5805 20.0001 19.0687 19.8139 19.4412 19.4413C20.1861 18.6964 20.1861 17.4887 19.4412 16.7438L12.6975 10L19.4413 3.25619C20.1862 2.51127 20.1862 1.30361 19.4413 0.558689Z" fill="white"/>
</svg>
