<svg width="299" height="88" viewBox="0 0 299 88" fill="none" xmlns="http://www.w3.org/2000/svg">
<rect x="0.910156" width="297.414" height="88" rx="8" fill="white"/>
<path d="M118.476 39.4286C117.799 44.508 113.735 44.508 110.01 44.508H107.979L109.672 34.6878C109.672 34.0106 110.349 33.672 111.026 33.672H112.042C114.751 33.672 117.122 33.672 118.476 35.0265C118.476 36.381 118.476 37.7355 118.476 39.4286ZM116.783 25.8836H102.222C101.206 25.8836 100.529 26.5608 100.19 27.5767L94.4336 64.8256C94.4336 65.5028 94.7723 66.1801 95.7881 66.1801H102.561C103.577 66.1801 104.254 65.5028 104.592 64.487L106.286 54.3282C106.286 53.3123 107.301 52.635 108.317 52.635H113.058C122.54 52.635 127.958 47.8943 129.651 38.7514C130.328 34.6878 129.651 31.6402 127.958 29.2698C125.249 27.2381 121.524 25.8836 116.783 25.8836Z" fill="#263577"/>
<path d="M150.291 52.9738C149.614 57.0373 146.566 59.7463 142.503 59.7463C140.471 59.7463 138.778 59.0691 137.762 57.7146C136.746 56.3601 136.407 54.6669 136.746 52.9738C137.423 48.9103 140.471 46.2013 144.535 46.2013C146.566 46.2013 148.259 46.8785 149.275 48.233C149.953 49.2489 150.63 50.9421 150.291 52.9738ZM159.773 39.4288H153C152.323 39.4288 151.984 39.7674 151.646 40.4446L151.307 42.4764L150.968 41.7992C149.614 39.7674 146.228 38.7515 142.841 38.7515C135.053 38.7515 128.619 44.5082 127.265 52.6352C126.587 56.6987 127.603 60.4236 129.974 63.1326C132.005 65.503 135.053 66.5189 138.778 66.5189C144.873 66.5189 148.259 62.4554 148.259 62.4554L147.921 64.4871C147.921 65.1644 148.259 65.8416 149.275 65.8416H155.371C156.386 65.8416 157.064 65.1644 157.402 64.1485L161.127 40.4446C161.127 40.106 160.789 39.4288 159.773 39.4288Z" fill="#263577"/>
<path d="M196.693 39.4283H189.582C188.905 39.4283 188.227 39.767 187.889 40.4442L178.407 54.6665L174.344 41.1215C174.005 40.1056 173.328 39.767 172.312 39.767H165.54C164.862 39.767 164.185 40.4442 164.524 41.4601L172.312 63.8094L165.201 73.9682C164.524 74.6455 165.201 76 166.217 76H173.328C174.005 76 174.682 75.6614 175.021 74.9841L198.048 41.4601C198.386 40.4442 197.709 39.4283 196.693 39.4283Z" fill="#263577"/>
<path d="M221.402 39.4286C220.725 44.508 216.661 44.508 212.936 44.508H210.904L212.598 34.6878C212.598 34.0106 213.275 33.672 213.952 33.672H214.968C217.677 33.672 220.047 33.672 221.402 35.0265C221.74 36.381 221.74 37.7355 221.402 39.4286ZM219.709 25.8836H205.148C204.132 25.8836 203.455 26.5608 203.116 27.5767L197.359 64.8256C197.359 65.5028 197.698 66.1801 198.714 66.1801H206.164C206.841 66.1801 207.518 65.8415 207.518 64.8256L209.211 54.3282C209.211 53.3123 210.227 52.635 211.243 52.635H215.984C225.465 52.635 230.883 47.8943 232.577 38.7514C233.254 34.6878 232.577 31.6402 230.883 29.2698C228.513 27.2381 224.788 25.8836 219.709 25.8836Z" fill="#2199D6"/>
<path d="M253.568 52.9738C252.891 57.0373 249.844 59.7463 245.78 59.7463C243.748 59.7463 242.055 59.0691 241.039 57.7146C240.023 56.3601 239.685 54.6669 240.023 52.9738C240.701 48.9103 243.748 46.2013 247.812 46.2013C249.844 46.2013 251.537 46.8785 252.553 48.233C253.23 49.2489 253.907 50.9421 253.568 52.9738ZM263.05 39.4288H256.278C255.6 39.4288 255.262 39.7674 254.923 40.4446L254.584 42.4764L254.246 41.7992C252.891 39.7674 249.505 38.7515 246.119 38.7515C238.33 38.7515 231.896 44.5082 230.542 52.6352C229.865 56.6987 230.88 60.4236 233.251 63.1326C235.283 65.503 238.33 66.5189 242.055 66.5189C248.15 66.5189 251.537 62.4554 251.537 62.4554L251.198 64.4871C251.198 65.1644 251.537 65.8416 252.553 65.8416H258.648C259.664 65.8416 260.341 65.1644 260.68 64.1485L264.405 40.4446C264.405 40.106 263.727 39.4288 263.05 39.4288Z" fill="#2199D6"/>
<path d="M271.181 26.8994L265.086 64.8256C265.086 65.5028 265.425 66.1801 266.441 66.1801H272.536C273.552 66.1801 274.229 65.5028 274.568 64.487L280.324 27.2381C280.324 26.5608 279.986 25.8836 278.97 25.8836H272.197C271.858 25.8836 271.52 26.5608 271.181 26.8994Z" fill="#2199D6"/>
<path d="M34.1635 73.291L35.1793 66.1798H32.8089H20.957L29.0841 14.37C29.0841 14.37 29.0841 14.0314 29.4227 14.0314H29.7613H49.7403C56.1742 14.0314 60.9149 15.3859 63.2853 18.0949C64.3012 19.4494 64.9785 20.8039 65.3171 22.1584C65.6557 23.8515 65.6557 25.5446 65.3171 27.915V29.2695L66.333 29.9468C67.3489 30.2854 68.0261 30.9627 68.7034 31.6399C69.7192 32.6558 70.3965 34.0103 70.3965 35.7034C70.7351 37.3966 70.7351 39.4283 70.0578 41.7987C69.3806 44.5077 68.7033 46.5395 67.6875 48.5712C66.6716 50.2644 65.3171 51.6189 63.9626 52.9734C62.608 53.9893 60.5763 54.6665 58.8832 55.3437C56.8514 55.6824 54.8197 56.021 52.4493 56.021H50.7561C49.7403 56.021 48.7244 56.3596 47.7085 57.0369C47.0313 57.7141 46.354 58.73 46.0154 59.7459V60.4231L43.9836 72.9523V73.291V73.6296C43.9836 73.6296 43.9836 73.6296 43.645 73.6296H34.1635V73.291Z" fill="#263577"/>
<path d="M67.6651 27.9156C67.6651 28.2542 67.6651 28.5928 67.3265 28.9314C64.6175 42.4765 55.8132 46.8786 44.2999 46.8786H38.5433C37.1887 46.8786 35.8343 47.8945 35.8343 49.249L32.7866 68.2121L32.1094 73.6301C32.1094 74.646 32.7866 75.3232 33.4639 75.3232H43.9613C45.3158 75.3232 46.3317 74.3074 46.3317 73.2915V72.6142L48.3634 60.4237V59.7464C48.7021 58.3919 49.7179 57.7147 50.7338 57.7147H52.4269C62.5857 57.7147 70.3741 53.6512 72.4059 41.7992C73.4218 36.7198 72.7445 32.6563 70.3741 29.9473C69.6969 29.2701 68.681 28.5928 67.6651 27.9156Z" fill="#2199D6"/>
<path d="M64.9578 26.8994C64.6191 26.8994 64.2805 26.5608 63.6033 26.5608C63.2647 26.5608 62.5874 26.2222 62.2487 26.2222C60.5556 25.8836 58.8625 25.8836 57.1693 25.8836H41.5926C41.2539 25.8836 40.9153 25.8836 40.5767 26.2222C39.8994 26.5608 39.2222 27.2381 39.2222 27.9153L35.8359 48.9102V49.5874C36.1746 48.2329 37.1904 47.217 38.5449 47.217H44.3016C55.8149 47.217 64.6191 42.4762 67.3281 29.2698C67.3281 28.9312 67.3282 28.5926 67.6668 28.2539C66.9895 27.9153 66.3123 27.5767 65.635 27.2381C65.2964 26.8994 64.9578 26.8994 64.9578 26.8994Z" fill="#252C5E"/>
<path d="M39.2277 27.9154C39.2277 27.2382 39.905 26.5609 40.5822 26.2223C40.9208 26.2223 41.2595 25.8837 41.5981 25.8837H57.1749C58.868 25.8837 60.8998 25.8837 62.2543 26.2223C62.5929 26.2223 63.2702 26.2223 63.6088 26.5609C63.9474 26.5609 64.286 26.8995 64.9633 26.8995C65.3019 26.8995 65.3019 26.8996 65.6405 27.2382C66.3178 27.5768 66.9951 27.9154 67.6723 28.2541C68.3496 23.1747 67.6723 19.7884 64.9633 16.7408C61.9157 13.3545 56.4976 12 49.7251 12H29.7462C28.3917 12 27.0372 13.0159 27.0372 14.3704L18.9102 66.5188C18.9102 67.5347 19.5874 68.5506 20.6033 68.5506H32.7938L35.8415 48.9103L39.2277 27.9154Z" fill="#263577"/>
</svg>
