<svg width="24" height="25" viewBox="0 0 24 25" fill="none" xmlns="http://www.w3.org/2000/svg">
<g clip-path="url(#clip0_157_78830)">
<path d="M22.4697 24.0303C22.7626 24.3232 23.2374 24.3232 23.5303 24.0303C23.8232 23.7374 23.8232 23.2626 23.5303 22.9697L22.4697 24.0303ZM18.3676 10.5588C18.3676 15.1477 14.6477 18.8676 10.0588 18.8676V20.3676C15.4761 20.3676 19.8676 15.9761 19.8676 10.5588H18.3676ZM10.0588 18.8676C5.46999 18.8676 1.75 15.1477 1.75 10.5588H0.25C0.25 15.9761 4.64156 20.3676 10.0588 20.3676V18.8676ZM1.75 10.5588C1.75 5.96999 5.46999 2.25 10.0588 2.25V0.75C4.64156 0.75 0.25 5.14156 0.25 10.5588H1.75ZM10.0588 2.25C14.6477 2.25 18.3676 5.96999 18.3676 10.5588H19.8676C19.8676 5.14156 15.4761 0.75 10.0588 0.75V2.25ZM15.9991 17.5597L22.4697 24.0303L23.5303 22.9697L17.0597 16.4991L15.9991 17.5597Z" fill="white"/>
</g>
<defs>
<clipPath id="clip0_157_78830">
<rect width="24" height="24" fill="white" transform="translate(0 0.5)"/>
</clipPath>
</defs>
</svg>
