<svg width="245" height="88" viewBox="0 0 245 88" fill="none" xmlns="http://www.w3.org/2000/svg">
<rect x="0.457031" width="244.452" height="88" rx="8" fill="white"/>
<path d="M212.89 12.9142H199.786C195.824 12.9142 192.776 14.1332 190.948 18.0951L165.957 75.0856H183.633C183.633 75.0856 186.681 67.4666 187.29 65.638C189.119 65.638 206.49 65.638 208.928 65.638C209.538 67.7713 211.062 74.7808 211.062 74.7808H226.909L212.89 12.9142ZM192.167 52.838C193.69 49.1808 198.871 35.4666 198.871 35.4666C198.871 35.7713 200.395 31.8094 201.005 29.6761L202.224 35.1618C202.224 35.1618 205.576 50.0951 206.186 53.1427H192.167V52.838Z" fill="#3362AB"/>
<path d="M167.168 54.6667C167.168 67.4667 155.587 76 137.606 76C129.987 76 122.673 74.4762 118.711 72.6476L121.149 58.6286L123.282 59.5429C128.768 61.981 132.425 62.8952 139.13 62.8952C144.006 62.8952 149.187 61.0667 149.187 56.8C149.187 54.0571 147.054 52.2286 140.349 49.181C133.949 46.1333 125.416 41.2571 125.416 32.419C125.416 20.2286 137.301 12 154.063 12C160.463 12 165.949 13.219 169.301 14.7429L166.863 28.1524L165.644 26.9333C162.597 25.7143 158.635 24.4952 152.844 24.4952C146.444 24.8 143.397 27.5429 143.397 29.981C143.397 32.7238 147.054 34.8571 152.844 37.6C162.597 42.1714 167.168 47.3524 167.168 54.6667Z" fill="#3362AB"/>
<path d="M18.457 13.5237L18.7618 12.3047H44.9713C48.6285 12.3047 51.3713 13.5237 52.2856 17.4856L58.0761 44.9142C52.2856 30.2856 38.8761 18.3999 18.457 13.5237Z" fill="#F9B50B"/>
<path d="M94.9443 12.9142L68.43 74.7809H50.449L35.2109 22.9714C46.1824 29.9809 55.3252 40.9523 58.6776 48.5714L60.5062 54.9714L76.9633 12.6095H94.9443V12.9142Z" fill="#3362AB"/>
<path d="M101.952 12.6095H118.714L108.047 74.7809H91.2852L101.952 12.6095Z" fill="#3362AB"/>
</svg>
